<?xml version="1.0" encoding="UTF-8"?>
<svg xmlns="http://www.w3.org/2000/svg" version="1.1" viewBox="0 0 48 48">
  <defs>
    <style>
      .cls-1 {
        fill: #fff;
      }
    </style>
  </defs>
  <!-- Generator: Adobe Illustrator 28.7.1, SVG Export Plug-In . SVG Version: 1.2.0 Build 142)  -->
  <g>
    <g id="Layer_1">
      <rect id="BG" width="48" height="48"/>
      <path id="TEmp" class="cls-1" d="M24,46.7c-3.1,0-5.8-1.1-8-3.3s-3.3-4.9-3.3-8,.4-3.8,1.3-5.5,2.2-3,3.9-3.8V7.5c0-1.7.6-3.2,1.8-4.4,1.2-1.2,2.7-1.8,4.4-1.8s3.2.6,4.4,1.8c1.2,1.2,1.8,2.7,1.8,4.4v18.7c1.7.8,3,2.1,3.9,3.8s1.3,3.5,1.3,5.5c0,3.1-1.1,5.8-3.3,8s-4.9,3.3-8,3.3ZM26.8,9.6v-2.2c0-.8-.3-1.5-.8-2-.5-.5-1.2-.8-2-.8s-1.5.3-2,.8c-.5.5-.8,1.2-.8,2v18.5h5.6V9.6"/>
    </g>
  </g>
</svg>